<svg width="113" height="76" viewBox="0 0 113 76" fill="none" xmlns="http://www.w3.org/2000/svg">
<g clip-path="url(#clip0_31_5334)">
<path d="M12.6082 60.7578C10.1807 60.7578 7.83308 59.9427 5.98822 58.4595C5.3728 57.9642 4.71707 57.1032 4.03928 55.9005C3.60675 55.1258 3.36449 54.2698 3.33032 53.3955C3.29616 52.5211 3.47095 51.6507 3.84185 50.8482C3.48433 51.1902 3.08889 51.4951 2.66229 51.7579L2.44664 51.8927L2.43418 51.6496C2.42601 51.4915 2.42187 51.3339 2.42187 51.1813C2.42187 50.2815 3.14569 49.3686 2.81187 48.5369C1.4049 45.0318 -3.05766 41.5484 3.40995 36.1237C4.00824 35.6219 3.20901 34.6186 3.20901 33.8594C3.20901 26.4187 11.8084 15.257 17.5651 20.3653C20.9253 23.347 27.9261 25.4652 31.1948 29.6126L31.2381 29.7355L31.1105 29.784C30.4575 30.042 29.7696 30.214 29.0664 30.2951C29.8161 30.4388 30.5811 30.4991 31.3457 30.4746L31.4643 30.4707L31.4931 30.5791C31.7776 31.652 31.9213 32.7536 31.9211 33.8594L31.9206 33.9789C31.918 34.8188 32.1036 35.6497 32.4655 36.4176C32.8273 37.1855 33.3573 37.8731 34.0207 38.4355C35.0687 39.3338 35.9061 40.4276 36.4796 41.647C37.0531 42.8664 37.35 44.1848 37.3515 45.5181C37.3515 47.0955 36.2112 49.1662 35.2545 50.6254C35.0121 50.9971 34.6832 51.3124 34.2927 51.5476C33.9021 51.7828 33.46 51.9318 32.9995 51.9834C32.5632 52.0351 32.1203 51.9961 31.7019 51.869C31.2835 51.7419 30.9 51.53 30.5784 51.2481C31.0312 52.104 31.6212 52.8894 32.3279 53.5768L32.4584 53.7032L32.2964 53.792C30.7389 54.6458 28.9682 55.0954 27.1654 55.0947L27.0598 55.0945C24.3227 55.0945 21.7246 56.0914 19.9318 57.8297C18.9799 58.7516 17.8418 59.4854 16.5841 59.9883C15.3265 60.4911 13.9748 60.7527 12.6082 60.7578Z" fill="#E6E6E6"/>
<path d="M9.01609 75.759C8.97201 75.759 8.92944 75.744 8.89617 75.7168C8.8629 75.6896 8.84117 75.6521 8.83496 75.6111C8.82717 75.5597 8.06485 70.3908 8.74951 63.5211C9.38178 57.1769 11.4123 48.0389 17.4949 40.534C17.5094 40.5159 17.5276 40.5008 17.5484 40.4894C17.5692 40.478 17.5922 40.4706 17.6161 40.4675C17.6399 40.4645 17.6642 40.4659 17.6875 40.4716C17.7108 40.4774 17.7326 40.4875 17.7518 40.5012C17.7709 40.5149 17.787 40.532 17.7991 40.5516C17.8112 40.5712 17.8191 40.5928 17.8223 40.6152C17.8255 40.6377 17.824 40.6605 17.8178 40.6824C17.8116 40.7042 17.8009 40.7248 17.7863 40.7427C11.7562 48.1828 9.74211 57.2538 9.11429 63.5533C8.43362 70.3829 9.18996 75.5115 9.19769 75.5625C9.20136 75.587 9.19941 75.6119 9.19197 75.6355C9.18453 75.6592 9.17177 75.6811 9.15455 75.6997C9.13733 75.7183 9.11606 75.7333 9.09218 75.7435C9.06829 75.7537 9.04234 75.759 9.01609 75.759H9.01609Z" fill="#3F3D56"/>
<path d="M14.5701 50.9301C14.5314 50.9301 14.4936 50.9186 14.4623 50.8973C14.431 50.8759 14.4077 50.8458 14.3957 50.8112C14.3837 50.7766 14.3837 50.7393 14.3957 50.7047C14.4076 50.6701 14.4309 50.64 14.4622 50.6186C16.1954 49.5156 18.0677 48.6196 20.0361 47.951C23.1113 46.8925 27.7876 45.9329 32.6018 47.3734C32.6247 47.3803 32.646 47.3913 32.6644 47.4059C32.6827 47.4205 32.6979 47.4383 32.7089 47.4584C32.72 47.4785 32.7267 47.5004 32.7288 47.523C32.7308 47.5455 32.7281 47.5682 32.7208 47.5897C32.7135 47.6113 32.7018 47.6313 32.6862 47.6486C32.6707 47.6659 32.6517 47.6801 32.6304 47.6905C32.609 47.7009 32.5857 47.7072 32.5617 47.7091C32.5377 47.711 32.5136 47.7085 32.4907 47.7016C27.7751 46.2907 23.1836 47.2344 20.1621 48.2745C18.2253 48.9316 16.383 49.8126 14.6776 50.8972C14.6464 50.9186 14.6087 50.9301 14.5701 50.9301Z" fill="#3F3D56"/>
<path d="M88.2566 60.7578C85.8292 60.7578 83.4815 59.9428 81.6367 58.4596C81.0212 57.9643 80.3655 57.1033 79.6877 55.9006C79.2552 55.1259 79.0129 54.2699 78.9788 53.3955C78.9446 52.5212 79.1194 51.6507 79.4903 50.8483C79.1328 51.1902 78.7373 51.4952 78.3107 51.7579L78.0951 51.8928L78.0826 51.6497C78.0744 51.4916 78.0703 51.334 78.0703 51.1813C78.0703 50.2816 78.7941 49.3686 78.4603 48.537C77.0533 45.0319 72.5908 41.5485 79.0584 36.1238C79.6567 35.622 78.8575 34.6187 78.8575 33.8594C78.8575 26.4187 90.0432 13.5461 93.2135 20.3653C97.1232 28.7751 103.859 27.8756 106.843 29.6126L106.887 29.7355L106.759 29.784C106.106 30.0421 105.418 30.2141 104.715 30.2952C105.464 30.4389 106.23 30.4992 106.994 30.4747L107.113 30.4708L107.142 30.5791C107.426 31.6521 107.57 32.7537 107.57 33.8594L107.569 33.9789C107.566 34.8188 107.752 35.6498 108.114 36.4177C108.476 37.1856 109.006 37.8731 109.669 38.4356C110.717 39.3339 111.555 40.4276 112.128 41.6471C112.702 42.8665 112.998 44.1849 113 45.5182C113 47.0956 111.86 49.1662 110.903 50.6255C110.66 50.9972 110.332 51.3125 109.941 51.5477C109.551 51.7828 109.108 51.9318 108.648 51.9834C108.212 52.0352 107.769 51.9961 107.35 51.869C106.932 51.742 106.548 51.53 106.227 51.2481C106.68 52.1041 107.27 52.8895 107.976 53.5768L108.107 53.7033L107.945 53.7921C106.387 54.6459 104.617 55.0954 102.814 55.0948L102.708 55.0945C99.9711 55.0945 97.373 56.0914 95.5802 57.8297C94.6283 58.7516 93.4902 59.4855 92.2326 59.9883C90.975 60.4911 89.6232 60.7527 88.2566 60.7578Z" fill="#E6E6E6"/>
<path d="M84.6646 75.759C84.6206 75.759 84.578 75.744 84.5447 75.7168C84.5115 75.6896 84.4897 75.6521 84.4835 75.6111C84.4757 75.5597 83.7134 70.3908 84.3981 63.5211C85.0303 57.1769 87.0608 48.0389 93.1434 40.534C93.158 40.5159 93.1762 40.5008 93.197 40.4894C93.2178 40.478 93.2408 40.4706 93.2646 40.4675C93.2885 40.4645 93.3128 40.4659 93.3361 40.4716C93.3593 40.4774 93.3812 40.4875 93.4003 40.5012C93.4195 40.5149 93.4356 40.532 93.4477 40.5516C93.4598 40.5712 93.4676 40.5928 93.4708 40.6152C93.4741 40.6377 93.4725 40.6605 93.4664 40.6824C93.4602 40.7042 93.4495 40.7248 93.4348 40.7427C87.4048 48.1828 85.3907 57.2538 84.7628 63.5533C84.0822 70.3829 84.8385 75.5115 84.8462 75.5625C84.8499 75.587 84.848 75.6119 84.8405 75.6355C84.8331 75.6592 84.8203 75.6811 84.8031 75.6997C84.7859 75.7183 84.7646 75.7333 84.7407 75.7435C84.7168 75.7537 84.6909 75.759 84.6647 75.759H84.6646Z" fill="#3F3D56"/>
<path d="M89.7159 51.2845C89.6772 51.2845 89.6395 51.273 89.6082 51.2516C89.5769 51.2303 89.5536 51.2001 89.5416 51.1655C89.5296 51.131 89.5296 51.0937 89.5415 51.0591C89.5535 51.0245 89.5768 50.9943 89.6081 50.9729C91.3413 49.87 93.2136 48.9739 95.182 48.3054C98.2572 47.2469 102.933 46.2873 107.748 47.7278C107.771 47.7347 107.792 47.7457 107.81 47.7603C107.829 47.7749 107.844 47.7927 107.855 47.8128C107.866 47.8329 107.873 47.8548 107.875 47.8773C107.877 47.8999 107.874 47.9226 107.867 47.9441C107.859 47.9657 107.848 47.9857 107.832 48.0029C107.817 48.0202 107.798 48.0345 107.776 48.0449C107.755 48.0552 107.732 48.0616 107.708 48.0635C107.684 48.0654 107.659 48.0628 107.637 48.056C102.921 46.6451 98.3295 47.5888 95.3079 48.6288C93.3712 49.2859 91.5289 50.1669 89.8235 51.2516C89.7922 51.273 89.7546 51.2845 89.7159 51.2845Z" fill="#3F3D56"/>
<path d="M81.3317 31.6524C81.3288 31.6161 81.3383 31.5799 81.3587 31.549C81.3791 31.5181 81.4094 31.4941 81.4453 31.4804C81.4811 31.4666 81.5207 31.464 81.5582 31.4727C81.5958 31.4814 81.6295 31.501 81.6544 31.5288C82.9494 33.0746 84.0348 34.7658 84.8859 36.5634C86.2303 39.3708 87.585 43.6867 86.4035 48.3047C86.3979 48.3267 86.3877 48.3475 86.3736 48.3658C86.3595 48.3841 86.3416 48.3996 86.3211 48.4114C86.3006 48.4232 86.2778 48.4311 86.254 48.4347C86.2302 48.4382 86.206 48.4373 86.1826 48.432C86.1592 48.4267 86.1371 48.4171 86.1176 48.4038C86.0982 48.3905 86.0817 48.3737 86.0691 48.3544C86.0566 48.3351 86.0482 48.3137 86.0444 48.2913C86.0407 48.269 86.0417 48.2462 86.0473 48.2242C87.2045 43.7008 85.8727 39.4632 84.5517 36.7048C83.7151 34.936 82.6478 33.272 81.3743 31.7509C81.3494 31.7231 81.3344 31.6887 81.3317 31.6524Z" fill="#3F3D56"/>
<path d="M6.06018 30.5892C6.05736 30.5529 6.06684 30.5167 6.08725 30.4858C6.10766 30.4549 6.13796 30.4309 6.17379 30.4171C6.20963 30.4034 6.24917 30.4007 6.28674 30.4094C6.32431 30.4181 6.35798 30.4378 6.38293 30.4656C7.67786 32.0114 8.76334 33.7026 9.61437 35.5002C10.9588 38.3076 12.3135 42.6235 11.132 47.2415C11.1264 47.2635 11.1163 47.2842 11.1021 47.3025C11.088 47.3208 11.0701 47.3363 11.0496 47.3482C11.0291 47.36 11.0063 47.3679 10.9825 47.3714C10.9587 47.375 10.9345 47.3741 10.9111 47.3688C10.8877 47.3635 10.8656 47.3539 10.8461 47.3406C10.8267 47.3273 10.8102 47.3105 10.7976 47.2912C10.7851 47.2719 10.7767 47.2505 10.773 47.2281C10.7692 47.2058 10.7702 47.1829 10.7758 47.1609C11.9331 42.6375 10.6012 38.4 9.28026 35.6416C8.44366 33.8728 7.37633 32.2087 6.10284 30.6877C6.07788 30.6599 6.06294 30.6254 6.06018 30.5892Z" fill="#3F3D56"/>
<path d="M56.6232 13.1789C56.4047 12.9682 56.1358 12.8095 55.8389 12.7161C55.5421 12.6227 55.2258 12.5971 54.9163 12.6416C54.6069 12.6861 54.3132 12.7994 54.0596 12.9719C53.806 13.1445 53.5998 13.3715 53.4582 13.6339C50.4777 15.5841 48.588 18.1973 47.8751 21.5255L42.5874 17.0151C42.6495 16.6378 42.5828 16.2518 42.397 15.9123C42.2112 15.5728 41.9158 15.2974 41.5532 15.1255C41.1906 14.9536 40.7794 14.8941 40.3786 14.9555C39.9778 15.0169 39.608 15.1961 39.3222 15.4673C39.0364 15.7385 38.8493 16.0879 38.7877 16.4652C38.7262 16.8426 38.7933 17.2286 38.9795 17.5679C39.1657 17.9071 39.4615 18.1823 39.8243 18.3538C40.1871 18.5253 40.5983 18.5843 40.9991 18.5225C41.9697 20.0716 46.4722 26.9219 49.2511 25.3535C51.5869 24.0353 55.7351 17.5036 56.9537 15.3374C57.1488 14.9911 57.2219 14.5954 57.1625 14.2075C57.1031 13.8196 56.9143 13.4594 56.6232 13.1789Z" fill="#FFB6B6"/>
<path d="M56.7923 16.17C57.0579 15.4934 57.2706 14.7476 57.0404 14.0597C56.7871 13.3031 56.0091 12.7613 55.1772 12.6296C54.3453 12.4978 53.4807 12.7336 52.7654 13.1542C52.0502 13.5747 51.4685 14.1687 50.9517 14.7956L51.0901 14.5885C50.4173 15.4172 49.7445 16.2459 49.0717 17.0746C50.7793 18.19 52.487 19.3054 54.1947 20.4208C55.3077 19.1506 56.1858 17.7137 56.7923 16.17Z" fill="#0066FF"/>
<path d="M49.4275 73.2518L46.9816 73.2517L45.818 64.3817L49.428 64.3818L49.4275 73.2518Z" fill="#FFB6B6"/>
<path d="M49.5137 75.6508L41.9919 75.6505V75.5611C41.992 74.8311 42.3005 74.131 42.8495 73.6149C43.3985 73.0987 44.1432 72.8087 44.9196 72.8087H44.9198L46.2937 71.8287L48.8572 72.8088L49.5138 72.8089L49.5137 75.6508Z" fill="#2F2E41"/>
<path d="M85.3074 40.5947L86.334 42.6818L78.2598 47.3987L76.7443 44.3182L85.3074 40.5947Z" fill="#FFB6B6"/>
<path d="M87.587 39.514L90.7446 45.9322L90.6583 45.9698C89.9536 46.2762 89.1483 46.3069 88.4195 46.0551C87.6907 45.8034 87.0981 45.2897 86.7721 44.6272L86.772 44.6271L85.2491 43.8662L85.119 41.2673L84.8434 40.7071L87.587 39.514Z" fill="#2F2E41"/>
<path d="M31.1685 5.21351C31.6708 5.07176 31.9929 4.69054 31.8881 4.36203C31.7832 4.03352 31.2909 3.88211 30.7886 4.02386C30.2863 4.16561 29.9642 4.54683 30.0691 4.87534C30.1739 5.20385 30.6662 5.35526 31.1685 5.21351Z" fill="#E6E6E6"/>
<path d="M37.3692 4.92273C37.8715 4.78099 38.1936 4.39977 38.0887 4.07126C37.9839 3.74275 37.4916 3.59134 36.9893 3.73309C36.487 3.87484 36.1649 4.25606 36.2697 4.58457C36.3746 4.91308 36.8669 5.06448 37.3692 4.92273Z" fill="#3F3D56"/>
<path d="M30.2279 10.0988C30.7302 9.95701 31.0524 9.57579 30.9475 9.24728C30.8426 8.91877 30.3504 8.76737 29.8481 8.90912C29.3458 9.05086 29.0236 9.43208 29.1285 9.76059C29.2334 10.0891 29.7256 10.2405 30.2279 10.0988Z" fill="#FF6584"/>
<path d="M28.2721 12.1409C28.4999 12.1075 28.6432 11.8309 28.5921 11.523C28.5411 11.2151 28.315 10.9926 28.0872 11.026C27.8594 11.0594 27.7161 11.336 27.7671 11.6439C27.8182 11.9518 28.0443 12.1743 28.2721 12.1409Z" fill="#E6E6E6"/>
<path d="M27.9309 15.8158C28.1587 15.7824 28.302 15.5058 28.251 15.1979C28.1999 14.89 27.9738 14.6675 27.746 14.7009C27.5182 14.7343 27.3749 15.0109 27.426 15.3188C27.477 15.6267 27.7031 15.8492 27.9309 15.8158Z" fill="#3F3D56"/>
<path d="M33.9502 8.5933C34.178 8.55991 34.3213 8.28324 34.2702 7.97535C34.2192 7.66747 33.9931 7.44495 33.7653 7.47835C33.5375 7.51174 33.3942 7.78841 33.4452 8.0963C33.4963 8.40419 33.7224 8.6267 33.9502 8.5933Z" fill="#E6E6E6"/>
<path d="M30.778 7.61845C31.0058 7.58505 31.1491 7.30839 31.098 7.0005C31.0469 6.69261 30.8209 6.4701 30.593 6.50349C30.3652 6.53689 30.2219 6.81356 30.273 7.12145C30.3241 7.42933 30.5501 7.65185 30.778 7.61845Z" fill="#FF6584"/>
<path d="M34.4856 4.48295C34.7134 4.44956 34.8567 4.17289 34.8056 3.865C34.7546 3.55712 34.5285 3.3346 34.3007 3.368C34.0729 3.40139 33.9296 3.67806 33.9806 3.98595C34.0317 4.29383 34.2578 4.51635 34.4856 4.48295Z" fill="#3F3D56"/>
<path d="M69.1785 63.1216C69.6975 63.0506 70.0756 62.7179 70.0231 62.3785C69.9705 62.0391 69.5073 61.8215 68.9883 61.8925C68.4693 61.9634 68.0912 62.2961 68.1437 62.6356C68.1962 62.975 68.6595 63.1926 69.1785 63.1216Z" fill="#E6E6E6"/>
<path d="M62.9995 62.5547C63.5185 62.4837 63.8967 62.151 63.8441 61.8116C63.7916 61.4722 63.3283 61.2546 62.8093 61.3256C62.2903 61.3966 61.9122 61.7293 61.9647 62.0687C62.0173 62.4081 62.4806 62.6257 62.9995 62.5547Z" fill="#3F3D56"/>
<path d="M70.8705 58.4186C71.3895 58.3476 71.7676 58.0149 71.7151 57.6755C71.6626 57.3361 71.1993 57.1185 70.6803 57.1895C70.1613 57.2604 69.7832 57.5931 69.8357 57.9326C69.8882 58.272 70.3515 58.4896 70.8705 58.4186Z" fill="#FF6584"/>
<path d="M72.9427 56.5675C73.1732 56.5658 73.3581 56.3119 73.3556 56.0003C73.3531 55.6887 73.1642 55.4374 72.9336 55.439C72.703 55.4407 72.5181 55.6946 72.5207 56.0062C72.5232 56.3178 72.7121 56.5691 72.9427 56.5675Z" fill="#E6E6E6"/>
<path d="M73.8532 52.9793C74.0838 52.9777 74.2686 52.7237 74.2661 52.4121C74.2636 52.1005 74.0747 51.8493 73.8441 51.8509C73.6135 51.8526 73.4287 52.1065 73.4312 52.4181C73.4337 52.7297 73.6226 52.981 73.8532 52.9793Z" fill="#3F3D56"/>
<path d="M66.7727 59.2941C67.0033 59.2925 67.1882 59.0386 67.1857 58.727C67.1832 58.4154 66.9942 58.1641 66.7637 58.1657C66.5331 58.1674 66.3482 58.4213 66.3507 58.7329C66.3532 59.0445 66.5422 59.2958 66.7727 59.2941Z" fill="#E6E6E6"/>
<path d="M69.7583 60.6957C69.9889 60.6941 70.1738 60.4402 70.1713 60.1286C70.1688 59.817 69.9798 59.5657 69.7493 59.5673C69.5187 59.569 69.3338 59.8229 69.3363 60.1345C69.3388 60.4461 69.5278 60.6974 69.7583 60.6957Z" fill="#FF6584"/>
<path d="M65.6021 63.2863C65.8327 63.2847 66.0175 63.0308 66.015 62.7192C66.0125 62.4076 65.8236 62.1563 65.593 62.1579C65.3625 62.1596 65.1776 62.4135 65.1801 62.7251C65.1826 63.0367 65.3715 63.288 65.6021 63.2863Z" fill="#3F3D56"/>
<path d="M53.2744 33.1597L51.7878 34.8712C51.8216 35.3348 51.6662 35.5996 51.2045 35.5427C51.2045 35.5427 51.2734 36.3914 50.7078 36.1147C50.1421 35.8379 50.2808 36.6062 50.2808 36.6062L49.8582 37.0929C49.8582 37.0929 49.8449 37.9205 49.4281 37.5881C49.0112 37.2556 48.8775 38.222 48.8775 38.222L48.347 38.8327L42.9387 45.0594L45.9704 67.9449L49.5138 67.7358L50.3776 47.6726C50.5978 47.1194 50.9322 46.8296 51.4434 46.948C51.6724 46.9951 51.8063 46.8657 51.8906 46.644L52.298 46.367L57.6302 42.742L64.6735 54.0904L82.1859 45.4073L80.5523 42.4538L68.2666 46.2751L67.9445 42.6616C67.5247 42.4318 67.5952 42.1571 67.8733 41.8635L67.7929 40.9618C68.2094 40.7215 68.003 40.3406 67.7017 39.9383C67.0725 39.5015 67.1341 39.004 67.571 38.4734C67.571 38.4734 68.1229 31.6861 65.4476 30.7495C62.7722 29.8129 53.2744 33.1597 53.2744 33.1597Z" fill="#2F2E41"/>
<path d="M58.5263 10.8806L55.1686 11.0284L53.4094 13.3912C52.1845 15.9245 51.8483 18.7584 52.4491 21.4832L53.6607 26.9774L53.3397 31.0516C52.4796 31.7039 52.4081 32.4707 53.158 33.357C52.2348 36.3518 60.091 35.0039 67.3578 33.9477C67.383 32.5208 66.9897 31.0679 65.9756 29.5765L66.9533 17.673L63.3367 13.6275L60.5686 11.9137L58.5263 10.8806Z" fill="#0066FF"/>
<path d="M61.6683 14.1454C61.3998 14.2967 61.1736 14.506 61.0083 14.756C60.8431 15.006 60.7437 15.2894 60.7183 15.5828C60.6929 15.8761 60.7423 16.1709 60.8623 16.4427C60.9824 16.7145 61.1697 16.9555 61.4086 17.1456C61.8138 19.6166 64.3301 21.997 68.287 24.0746L62.3983 27.8702C62.0222 27.7264 61.6072 27.6983 61.213 27.7899C60.8188 27.8815 60.4655 28.0881 60.2039 28.3801C59.9423 28.6721 59.7858 29.0345 59.7569 29.4153C59.7279 29.7961 59.8279 30.1758 60.0426 30.4998C60.2573 30.8239 60.5757 31.0757 60.952 31.2191C61.3284 31.3625 61.7434 31.3902 62.1375 31.2982C62.5316 31.2062 62.8846 30.9992 63.1458 30.7069C63.4071 30.4146 63.5632 30.0521 63.5917 29.6712C65.419 29.1409 73.548 26.6037 72.5664 23.6996C71.7413 21.2586 65.9391 15.9563 63.9786 14.3414C63.6651 14.083 63.2726 13.9248 62.8574 13.8896C62.4422 13.8544 62.0259 13.9439 61.6683 14.1454Z" fill="#FFB6B6"/>
<path d="M55.2644 25.2147C54.873 25.2141 54.4962 25.0749 54.209 24.8248C53.9218 24.5747 53.7454 24.2322 53.7147 23.8653L53.5062 21.366C53.474 20.979 53.6065 20.5958 53.8748 20.3007C54.143 20.0055 54.525 19.8227 54.9367 19.7923L60.1007 19.4116C60.5123 19.3813 60.9199 19.5059 61.2338 19.7581C61.5477 20.0103 61.7422 20.3694 61.7745 20.7564L61.983 23.2557C62.0153 23.6427 61.8827 24.0259 61.6145 24.3211C61.3462 24.6162 60.9642 24.7991 60.5526 24.8294L55.3886 25.2102C55.347 25.2132 55.3056 25.2147 55.2644 25.2147Z" fill="#F2F2F2"/>
<path d="M56.0076 10.2815C58.4356 10.2815 60.4038 8.43106 60.4038 6.14843C60.4038 3.86581 58.4356 2.01538 56.0076 2.01538C53.5797 2.01538 51.6115 3.86581 51.6115 6.14843C51.6115 8.43106 53.5797 10.2815 56.0076 10.2815Z" fill="#FFB6B6"/>
<path d="M60.5753 3.51821C60.367 3.26398 60.1285 3.03047 59.9472 2.75859C59.7725 2.49682 59.6533 2.20298 59.4564 1.95556C58.8741 1.22378 57.7914 1.07414 56.8241 0.982999C56.1855 0.922826 55.5468 0.862651 54.9081 0.802473C54.5492 0.754704 54.1854 0.748527 53.8249 0.784084C53.482 0.834165 53.156 0.95822 52.8725 1.14653C52.5891 1.33484 52.3558 1.5823 52.1911 1.86951C52.0039 2.2024 51.8789 2.61727 51.5141 2.77253C51.3421 2.82351 51.167 2.86444 50.9897 2.89509C50.8173 2.94536 50.6441 3.07484 50.6505 3.24442C50.6624 3.55842 51.2517 3.73816 51.1079 4.0218C50.981 4.27228 50.4725 4.09455 50.4004 4.47269C50.3906 4.52726 50.3931 4.58315 50.4076 4.63676C50.4222 4.69038 50.4485 4.74056 50.4849 4.78406C50.6488 4.98154 50.9179 5.03285 51.1702 5.07643L50.7222 5.6787C52.1725 6.23897 53.7871 6.2979 55.2793 5.84501C55.5021 5.77562 55.7398 5.75991 55.9707 5.79934C56.2016 5.83876 56.4183 5.93205 56.6009 6.07066C56.7834 6.20927 56.9261 6.38876 57.0157 6.59266C57.1053 6.79656 57.1391 7.01836 57.1138 7.23771L57.1118 7.25482C57.1021 7.32096 57.1116 7.38833 57.1394 7.44978C57.1672 7.51122 57.2121 7.56444 57.2695 7.60378C57.4968 7.74901 57.7277 7.54525 57.8308 7.34363C57.9356 7.13855 58.0052 6.88975 58.2589 6.81788C58.3624 6.79332 58.4716 6.80101 58.5701 6.8398C58.6685 6.87858 58.7509 6.94636 58.8049 7.03295C59.0022 7.32403 58.9212 7.67143 58.8077 7.9795C58.545 8.69037 58.1186 9.33794 57.5589 9.87595C58.5141 9.81656 58.2346 9.90657 59.1897 9.84718L59.4561 9.88615C60.0952 9.51128 60.412 8.79806 60.5805 8.10777C60.9628 6.54195 61.6182 4.79088 60.5753 3.51821Z" fill="#2F2E41"/>
<path d="M64.3027 13.8071C63.6679 13.4022 62.9489 13.0289 62.1833 13.0737C61.3413 13.1231 60.5951 13.7029 60.2591 14.4305C59.9232 15.158 59.959 16.0037 60.2213 16.7575C60.4837 17.5113 60.9573 18.1849 61.4804 18.8072L61.2998 18.6311C61.9938 19.4442 62.6877 20.2573 63.3817 21.0704C64.9437 19.7799 66.5056 18.4895 68.0675 17.199C67.0235 15.8781 65.7509 14.7315 64.3027 13.8071Z" fill="#0066FF"/>
<path d="M55.8857 75.4335L55.8877 75.3512C55.9273 73.9703 56.2864 72.6141 56.9398 71.3769C57.5933 70.1397 58.5255 69.0511 59.6716 68.1868C60.3186 67.7068 61.0273 67.3053 61.781 66.9917L61.8529 66.9616L61.8651 67.0347C62.0111 67.9066 62.2422 68.7965 62.3499 69.1914L63.0717 66.5434L63.1519 66.5217C63.5197 66.4202 63.9114 66.4245 64.2766 66.5342C64.6417 66.6439 64.9635 66.8538 65.2006 67.137C65.448 67.4203 65.5995 67.7667 65.6356 68.1316C65.6717 68.4966 65.5907 68.8633 65.4031 69.1846C65.2349 69.4793 65.0695 69.7868 64.9095 70.0842C64.3599 71.106 63.7916 72.1626 62.9634 72.9835C62.33 73.5991 61.5584 74.0739 60.7049 74.3732C59.8513 74.6726 58.9375 74.7889 58.03 74.7137L55.8857 75.4335Z" fill="#F2F2F2"/>
<path d="M66.0855 75.6723L31.9369 75.7086C31.9172 75.7086 31.8977 75.705 31.8796 75.6979C31.8614 75.6909 31.8449 75.6805 31.8311 75.6674C31.8172 75.6544 31.8061 75.6389 31.7986 75.6218C31.7911 75.6047 31.7872 75.5864 31.7872 75.568C31.7872 75.5495 31.7911 75.5312 31.7986 75.5141C31.8061 75.4971 31.8172 75.4816 31.8311 75.4685C31.8449 75.4554 31.8614 75.4451 31.8796 75.438C31.8977 75.4309 31.9172 75.4273 31.9369 75.4273L66.0855 75.391C66.1252 75.391 66.1632 75.4058 66.1913 75.4322C66.2193 75.4586 66.2351 75.4944 66.2351 75.5317C66.2351 75.569 66.2193 75.6047 66.1913 75.6311C66.1632 75.6575 66.1252 75.6723 66.0855 75.6723Z" fill="#CACACA"/>
<path d="M98.0036 75.6723L78.3061 75.7086C78.2865 75.7086 78.267 75.705 78.2489 75.6979C78.2307 75.6909 78.2142 75.6805 78.2003 75.6674C78.1864 75.6544 78.1754 75.6389 78.1679 75.6218C78.1604 75.6047 78.1565 75.5864 78.1565 75.568C78.1565 75.5495 78.1604 75.5312 78.1679 75.5141C78.1754 75.4971 78.1864 75.4816 78.2003 75.4685C78.2142 75.4554 78.2307 75.4451 78.2489 75.438C78.267 75.4309 78.2865 75.4273 78.3061 75.4273L98.0036 75.391C98.0433 75.391 98.0814 75.4058 98.1094 75.4322C98.1375 75.4586 98.1533 75.4944 98.1533 75.5317C98.1533 75.569 98.1375 75.6047 98.1094 75.6311C98.0814 75.6575 98.0433 75.6723 98.0036 75.6723Z" fill="#CACACA"/>
<path d="M19.7162 75.6723L1.27536 75.7086C1.25571 75.7086 1.23625 75.705 1.2181 75.6979C1.19994 75.6909 1.18345 75.6805 1.16956 75.6674C1.15566 75.6544 1.14464 75.6389 1.13712 75.6218C1.1296 75.6047 1.12573 75.5864 1.12573 75.568C1.12573 75.5495 1.1296 75.5312 1.13712 75.5141C1.14464 75.4971 1.15566 75.4816 1.16956 75.4685C1.18345 75.4554 1.19994 75.4451 1.2181 75.438C1.23625 75.4309 1.25571 75.4273 1.27536 75.4273L19.7162 75.391C19.7359 75.3909 19.7554 75.3945 19.7736 75.4016C19.7918 75.4086 19.8084 75.419 19.8223 75.432C19.8363 75.4451 19.8473 75.4606 19.8549 75.4777C19.8624 75.4948 19.8663 75.5132 19.8663 75.5317C19.8663 75.5502 19.8624 75.5685 19.8549 75.5856C19.8473 75.6027 19.8363 75.6182 19.8223 75.6313C19.8084 75.6443 19.7918 75.6547 19.7736 75.6617C19.7554 75.6688 19.7359 75.6724 19.7162 75.6723Z" fill="#CACACA"/>
<path d="M39.69 12.6047C39.6175 12.6047 39.5458 12.6189 39.4794 12.6462C39.4131 12.6736 39.3534 12.7136 39.3043 12.7637C39.2552 12.8138 39.2177 12.8729 39.1941 12.9374C39.1706 13.0018 39.1615 13.0701 39.1674 13.138C39.7029 15.5107 39.9384 17.7732 39.7571 19.8828C39.7685 20.0059 39.8284 20.1205 39.9251 20.2042C40.0218 20.2879 40.1482 20.3347 40.2796 20.3353H43.6624C43.7938 20.3347 43.9202 20.2879 44.0169 20.2042C44.1136 20.1205 44.1735 20.0059 44.185 19.8828C43.9117 17.7549 44.2006 15.483 44.7746 13.138C44.7805 13.0701 44.7714 13.0018 44.7479 12.9374C44.7243 12.8729 44.6868 12.8138 44.6377 12.7637C44.5886 12.7136 44.529 12.6736 44.4626 12.6462C44.3962 12.6188 44.3245 12.6047 44.252 12.6047H39.69Z" fill="#0066FF"/>
<path d="M45.0456 13.5037L44.7932 12.3767C44.7702 12.2742 44.7105 12.1822 44.624 12.1163C44.5375 12.0503 44.4295 12.0142 44.3181 12.0142H42.7425C42.7364 11.9946 42.7264 11.9762 42.713 11.96L42.5379 11.7543C42.5214 11.7349 42.5005 11.7192 42.4767 11.7085C42.4529 11.6977 42.4268 11.6921 42.4004 11.6921H41.4276C41.4012 11.6921 41.3751 11.6977 41.3513 11.7085C41.3275 11.7192 41.3066 11.7349 41.2901 11.7543L41.115 11.96C41.1016 11.9762 41.0916 11.9946 41.0854 12.0142H39.6241C39.5127 12.0142 39.4047 12.0503 39.3182 12.1163C39.2317 12.1822 39.172 12.2742 39.149 12.3767L38.8966 13.5037C38.8818 13.5702 38.8828 13.639 38.8998 13.705C38.9168 13.771 38.9492 13.8326 38.9947 13.8854C39.0403 13.9381 39.0977 13.9807 39.1629 14.0099C39.2282 14.0391 39.2995 14.0543 39.3718 14.0543C41.0221 14.5459 42.755 14.5459 44.5704 14.0543C44.6427 14.0543 44.714 14.0391 44.7792 14.0099C44.8445 13.9807 44.9019 13.9381 44.9475 13.8854C44.993 13.8326 45.0254 13.771 45.0424 13.705C45.0594 13.639 45.0604 13.5702 45.0456 13.5037Z" fill="#3F3D56"/>
</g>
<defs>
<clipPath id="clip0_31_5334">
<rect width="113" height="75" fill="white" transform="translate(0 0.759033)"/>
</clipPath>
</defs>
</svg>
