<svg width="119" height="76" viewBox="0 0 119 76" fill="none" xmlns="http://www.w3.org/2000/svg">
<g clip-path="url(#clip0_31_5297)">
<path d="M46.9011 47.2447C46.9374 47.021 46.9191 46.7928 46.8475 46.5762C46.7759 46.3596 46.6526 46.1599 46.4865 45.991C46.3203 45.8222 46.1153 45.6884 45.8858 45.599C45.6563 45.5097 45.408 45.4669 45.1583 45.4738L34.2141 35.4588L32.0521 38.1942L43.4898 47.1786C43.5304 47.5574 43.7231 47.9097 44.0315 48.1685C44.3399 48.4273 44.7425 48.5748 45.163 48.583C45.5834 48.5911 45.9926 48.4594 46.313 48.2127C46.6333 47.9661 46.8426 47.6216 46.9011 47.2447Z" fill="#FFB8B8"/>
<path d="M41.7169 41.4617L38.9236 43.9871C38.7898 44.1074 38.6091 44.1751 38.4206 44.1758C38.2321 44.1765 38.0508 44.1101 37.9159 43.9908L30.2829 37.1989C30.019 36.964 29.8092 36.6842 29.6655 36.3755C29.5219 36.0667 29.4473 35.7353 29.4461 35.4003C29.4448 35.0654 29.517 34.7335 29.6583 34.4239C29.7997 34.1144 30.0075 33.8332 30.2696 33.5968C30.5318 33.3604 30.8432 33.1733 31.1857 33.0465C31.5283 32.9196 31.8952 32.8555 32.2653 32.8578C32.6354 32.8601 33.0013 32.9288 33.3419 33.0599C33.6824 33.191 33.9909 33.3819 34.2495 33.6216L41.7233 40.5508C41.8543 40.6731 41.9271 40.8371 41.9259 41.0075C41.9247 41.1778 41.8497 41.3409 41.7169 41.4617Z" fill="#0066FF"/>
<path d="M31.9203 29.0658C34.0779 29.0658 35.827 27.4827 35.827 25.5299C35.827 23.5771 34.0779 21.994 31.9203 21.994C29.7627 21.994 28.0135 23.5771 28.0135 25.5299C28.0135 27.4827 29.7627 29.0658 31.9203 29.0658Z" fill="#FFB8B8"/>
<path d="M18.7195 67.9017L19.7087 69.4226L26.6616 66.6933L25.2016 64.4483L18.7195 67.9017Z" fill="#FFB8B8"/>
<path d="M19.016 67.2214L20.9641 70.2169L20.9641 70.217C21.1272 70.4677 21.2341 70.745 21.2787 71.033C21.3233 71.3211 21.3048 71.6143 21.2242 71.8959C21.1436 72.1775 21.0026 72.442 20.809 72.6742C20.6155 72.9065 20.3734 73.1019 20.0964 73.2495L20.0278 73.286L16.8383 68.3816L19.016 67.2214Z" fill="#2F2E41"/>
<path d="M30.1811 73.3812H32.1312L33.0589 66.5735L30.1808 66.5736L30.1811 73.3812Z" fill="#FFB8B8"/>
<path d="M29.6837 72.805L33.5241 72.8049H33.5243C33.8457 72.8049 34.1639 72.8621 34.4608 72.9735C34.7578 73.0848 35.0276 73.2479 35.2548 73.4536C35.4821 73.6593 35.6624 73.9035 35.7854 74.1722C35.9084 74.441 35.9717 74.729 35.9717 75.0199V75.0919L29.6838 75.0921L29.6837 72.805Z" fill="#2F2E41"/>
<path d="M22.3411 69.2567C22.2288 69.2568 22.1182 69.2329 22.018 69.1871C21.9179 69.1413 21.8311 69.0747 21.7646 68.9929L19.8839 66.681C19.8265 66.6105 19.7856 66.5302 19.7634 66.4449C19.7413 66.3597 19.7386 66.2712 19.7553 66.185C19.772 66.0987 19.8079 66.0164 19.8607 65.9431C19.9136 65.8697 19.9823 65.8068 20.0628 65.7582L28.4317 60.6991L23.382 48.6819L34.1806 49.4884L34.5444 59.8154C34.5785 60.7558 34.3294 61.687 33.8238 62.5092C33.3182 63.3315 32.5751 64.0138 31.674 64.4832L22.6987 69.1697C22.59 69.2267 22.4667 69.2567 22.3411 69.2567Z" fill="#2F2E41"/>
<path d="M30.24 71.9992C30.0548 71.9989 29.8769 71.9336 29.7438 71.8171C29.6107 71.7006 29.5326 71.5419 29.526 71.3744L29.1302 61.314L34.0307 61.0804L33.6405 71.213C33.6348 71.3736 33.5632 71.5264 33.4396 71.6417C33.3161 71.7571 33.1496 71.8266 32.9725 71.8368L30.2887 71.9978C30.2724 71.9988 30.2561 71.9992 30.24 71.9992Z" fill="#2F2E41"/>
<path d="M35.4305 51.4862C34.1837 51.4862 29.8288 50.2169 28.317 49.7645C28.0908 49.9283 26.8484 50.7692 25.398 50.6155C24.5032 50.5205 23.7153 50.062 23.0565 49.2528C21.6015 47.4656 23.3986 39.8014 25.1623 33.6867C25.5159 32.4507 26.3852 31.3869 27.5874 30.7189C28.7896 30.051 30.2311 29.8309 31.6089 30.1049C32.6075 30.3044 33.5248 30.752 34.2579 31.3974C34.9909 32.0428 35.5106 32.8604 35.7585 33.7584C36.0905 34.9818 35.8049 36.4208 35.5963 37.4717C35.4982 37.9658 35.4208 38.356 35.4472 38.5478C35.5496 39.289 36.1183 50.913 35.7526 51.4094C35.7137 51.4623 35.6011 51.4862 35.4305 51.4862Z" fill="#0066FF"/>
<path d="M30.8694 51.5068C31.0698 51.3718 31.235 51.1986 31.3535 50.9996C31.4719 50.8005 31.5407 50.5804 31.555 50.3546C31.5693 50.1289 31.5287 49.9031 31.4361 49.6931C31.3435 49.4831 31.2012 49.2941 31.0192 49.1392L31.0964 35.0534L27.4308 35.6058L28.5075 49.278C28.2404 49.5721 28.1017 49.9446 28.1178 50.325C28.1339 50.7053 28.3035 51.0672 28.5947 51.3419C28.8858 51.6166 29.2782 51.7851 29.6974 51.8155C30.1167 51.8459 30.5336 51.7361 30.8694 51.5068Z" fill="#FFB8B8"/>
<path d="M31.7171 44.0994H27.7689C27.5803 44.0989 27.3996 44.0313 27.2657 43.9112C27.1317 43.7911 27.0554 43.6281 27.0531 43.4575L26.9562 33.7699C26.9528 33.435 27.0229 33.1027 27.1623 32.7924C27.3017 32.4821 27.5077 32.1998 27.7684 31.962C28.0291 31.7242 28.3393 31.5355 28.681 31.4069C29.0228 31.2783 29.3893 31.2123 29.7595 31.2127C30.1296 31.2131 30.496 31.2799 30.8374 31.4093C31.1788 31.5387 31.4885 31.728 31.7485 31.9664C32.0086 32.2048 32.2138 32.4875 32.3524 32.7981C32.491 33.1087 32.5601 33.4412 32.5558 33.7761L32.4328 43.459C32.43 43.6294 32.3535 43.7919 32.2196 43.9116C32.0858 44.0314 31.9053 44.0988 31.7171 44.0994Z" fill="#0066FF"/>
<path d="M30.9255 29.051C29.1368 29.054 27.4493 27.7744 27.1393 26.18C27.0283 25.5536 27.0784 24.9125 27.2855 24.3065C27.5105 23.6166 27.8962 22.9783 28.4167 22.4348C28.9373 21.8912 29.5805 21.455 30.3031 21.1555C31.0257 20.856 31.8108 20.7002 32.6055 20.6986C33.4003 20.6969 34.1862 20.8495 34.9102 21.1461C35.3888 21.3421 35.8601 21.6235 36.0792 22.0556C36.2983 22.4876 36.1612 23.0914 35.6819 23.2858C35.3686 23.4128 34.9756 23.3505 34.6977 23.5328C34.2986 23.7947 34.4013 24.3521 34.5796 24.7682C34.7578 25.1842 34.9594 25.6876 34.6606 26.0426C34.3822 26.3733 33.8257 26.3631 33.3874 26.2386C32.9491 26.1141 32.5164 25.9056 32.0594 25.948C31.3929 26.0099 30.9139 26.6099 30.8252 27.211C30.7366 27.8121 30.9453 28.4129 31.1514 28.99L30.9255 29.051Z" fill="#2F2E41"/>
<path d="M79.8116 32.6597C79.8116 22.9904 88.4723 0.0455933 99.1558 0.0455933C109.839 0.0455933 118.5 22.9904 118.5 32.6597C118.5 37.3031 116.462 41.7563 112.834 45.0396C109.207 48.323 104.286 50.1675 99.1558 50.1675C94.0254 50.1675 89.1052 48.323 85.4774 45.0396C81.8497 41.7563 79.8116 37.3031 79.8116 32.6597Z" fill="#0066FF"/>
<path d="M99.1558 75.2543C99.1136 75.2543 99.0731 75.2391 99.0433 75.2121C99.0135 75.1851 98.9967 75.1485 98.9967 75.1103V14.7491C98.9967 14.7109 99.0135 14.6743 99.0433 14.6473C99.0731 14.6203 99.1136 14.6051 99.1558 14.6051C99.198 14.6051 99.2384 14.6203 99.2682 14.6473C99.2981 14.6743 99.3148 14.7109 99.3148 14.7491V75.1103C99.3148 75.1485 99.2981 75.1851 99.2682 75.2121C99.2384 75.2391 99.198 75.2543 99.1558 75.2543Z" fill="#3F3D56"/>
<path d="M99.1558 26.4022C99.1349 26.4023 99.1142 26.3986 99.0949 26.3913C99.0756 26.3841 99.0581 26.3735 99.0433 26.3601L91.3869 19.4305C91.3574 19.4035 91.3409 19.3669 91.3411 19.3289C91.3412 19.2909 91.3579 19.2545 91.3877 19.2276C91.4174 19.2007 91.4576 19.1855 91.4996 19.1854C91.5416 19.1853 91.582 19.2002 91.6119 19.227L99.2683 26.1565C99.2905 26.1766 99.3057 26.2023 99.3118 26.2302C99.3179 26.2581 99.3148 26.2871 99.3028 26.3134C99.2907 26.3397 99.2703 26.3622 99.2442 26.378C99.218 26.3938 99.1873 26.4022 99.1558 26.4022V26.4022Z" fill="#3F3D56"/>
<path d="M99.1558 38.3986C99.1243 38.3986 99.0936 38.3902 99.0674 38.3744C99.0412 38.3586 99.0209 38.3361 99.0088 38.3098C98.9968 38.2835 98.9936 38.2545 98.9998 38.2266C99.0059 38.1987 99.021 38.173 99.0433 38.1529L111.865 26.548C111.895 26.5213 111.936 26.5064 111.978 26.5065C112.02 26.5067 112.06 26.5218 112.089 26.5487C112.119 26.5756 112.136 26.612 112.136 26.65C112.136 26.688 112.12 26.7245 112.09 26.7516L99.2682 38.3565C99.2535 38.3698 99.236 38.3805 99.2167 38.3877C99.1973 38.3949 99.1767 38.3987 99.1558 38.3986Z" fill="#3F3D56"/>
<path d="M45.6225 47.1628C48.1603 46.6435 51.0355 48.4402 51.1246 50.8522C51.1496 51.5306 50.93 52.2431 50.3532 52.7046C49.877 53.0856 49.1684 53.2778 48.5528 53.0916C47.3682 52.7332 47.3049 51.2392 47.9404 50.4413C48.8008 49.3609 50.5054 49.1764 51.858 49.3049C53.5116 49.462 55.0833 50.1182 56.4021 51.0177C59.0424 52.8184 60.7235 55.5781 62.0843 58.2445C63.4773 60.9798 64.4903 63.8608 65.1 66.8217C65.1767 67.1936 65.247 67.5665 65.3109 67.9404C65.329 67.9952 65.3701 68.0413 65.4255 68.0688C65.4809 68.0963 65.546 68.103 65.6067 68.0874C65.6666 68.0702 65.7169 68.0328 65.7471 67.9829C65.7773 67.9331 65.7852 67.8746 65.7691 67.8196C65.2122 64.5886 64.1833 61.4389 62.7096 58.4532C61.2849 55.5635 59.4886 52.5661 56.6311 50.6376C55.2066 49.6763 53.5245 49.0073 51.7443 48.8642C50.2457 48.7438 48.4711 49.0307 47.5391 50.2104C46.8039 51.1411 46.8785 52.6878 48.0162 53.3359C48.6416 53.6923 49.4363 53.6506 50.0857 53.3736C50.4303 53.2196 50.7338 52.9996 50.9752 52.7288C51.2165 52.4581 51.3898 52.1431 51.4833 51.8057C51.8872 50.4661 51.2738 49.0171 50.2222 48.0596C49.2352 47.1584 47.8939 46.6479 46.4919 46.6398C46.1543 46.6432 45.8181 46.6795 45.4891 46.748C45.1895 46.8093 45.3234 47.224 45.6225 47.1628V47.1628Z" fill="#CCCCCC"/>
<path d="M57.8614 73.6897L56.2843 71.2527L58.2289 70.2218L59.806 72.6587V72.6588C59.9571 72.8922 59.9995 73.1704 59.9239 73.4321C59.8484 73.6938 59.6611 73.9176 59.4032 74.0543C59.1453 74.191 58.838 74.2294 58.5489 74.161C58.2597 74.0926 58.0124 73.9231 57.8614 73.6897Z" fill="#0066FF"/>
<path d="M52.6469 68.6242C53.4128 68.6242 54.0337 68.0622 54.0337 67.369C54.0337 66.6757 53.4128 66.1138 52.6469 66.1138C51.8809 66.1138 51.26 66.6757 51.26 67.369C51.26 68.0622 51.8809 68.6242 52.6469 68.6242Z" fill="#0066FF"/>
<path d="M63.9632 73.6897L62.3861 71.2527L64.3307 70.2218L65.9078 72.6587C66.0585 72.8921 66.1006 73.1701 66.025 73.4316C65.9494 73.6931 65.7622 73.9167 65.5045 74.0533C65.2468 74.19 64.9397 74.2284 64.6507 74.1602C64.3617 74.092 64.1144 73.9228 63.9632 73.6897Z" fill="#0066FF"/>
<path d="M52.9104 69.8977C52.9113 69.1905 53.2221 68.5126 53.7745 68.0125C54.327 67.5125 55.0761 67.2312 55.8575 67.2304H65.1867C65.5169 67.2308 65.8335 67.3497 66.0671 67.561C66.3006 67.7724 66.4319 68.0589 66.4323 68.3578V69.3186C66.4312 70.1793 66.053 71.0045 65.3805 71.6131C64.7081 72.2217 63.7964 72.5641 62.8454 72.565H55.8575C55.0761 72.5642 54.327 72.283 53.7745 71.7829C53.2221 71.2829 52.9113 70.6049 52.9104 69.8977Z" fill="#3F3D56"/>
<path d="M55.0618 74.0039V71.1797H57.3154V74.0039C57.3154 74.2744 57.1967 74.5338 56.9854 74.725C56.7741 74.9163 56.4874 75.0238 56.1886 75.0238C55.8897 75.0238 55.6031 74.9163 55.3918 74.725C55.1805 74.5338 55.0618 74.2744 55.0618 74.0039Z" fill="#3F3D56"/>
<path d="M61.6012 74.0039V71.1797H63.8548V74.0039C63.855 74.1379 63.826 74.2707 63.7695 74.3946C63.7129 74.5184 63.6299 74.631 63.5253 74.7258C63.4206 74.8207 63.2963 74.8959 63.1595 74.9472C63.0227 74.9985 62.8761 75.025 62.728 75.025C62.5799 75.025 62.4333 74.9985 62.2965 74.9472C62.1597 74.8959 62.0354 74.8207 61.9308 74.7258C61.8261 74.631 61.7431 74.5184 61.6866 74.3946C61.63 74.2707 61.601 74.1379 61.6012 74.0039Z" fill="#3F3D56"/>
<path d="M70.7704 62.8301C71.001 62.5713 71.3356 62.4059 71.7008 62.3701C72.066 62.3344 72.432 62.4312 72.7184 62.6394C73.0048 62.8476 73.1882 63.1501 73.2284 63.4806C73.2687 63.8111 73.1624 64.1425 72.933 64.4021L70.6533 66.9711L68.4907 65.3991L70.7704 62.8301Z" fill="#0066FF"/>
<path d="M65.2791 67.8908L67.1054 65.8328C67.5495 65.3335 68.1942 65.014 68.8982 64.9445C69.6021 64.8749 70.3079 65.0609 70.8605 65.4617L71.4311 65.8765C72.0888 66.3557 72.5096 67.0514 72.6013 67.8111C72.6929 68.5708 72.4479 69.3323 71.9199 69.9287L70.4152 71.6243C70.249 71.8112 70.0076 71.9308 69.744 71.9569C69.4804 71.9829 69.2162 71.9132 69.0093 71.7632L65.4326 69.1632C65.226 69.0128 65.0939 68.7943 65.0651 68.5558C65.0363 68.3172 65.1133 68.0781 65.2791 67.8908Z" fill="#3F3D56"/>
<path d="M71.0418 62.5243C71.1202 62.4359 71.217 62.3624 71.3268 62.308C71.4366 62.2535 71.5572 62.2191 71.6817 62.2068C71.8061 62.1945 71.9321 62.2045 72.0523 62.2363C72.1725 62.268 72.2846 62.3209 72.3822 62.3919C72.4798 62.4628 72.5611 62.5505 72.6212 62.6499C72.6814 62.7492 72.7194 62.8584 72.733 62.971C72.7466 63.0837 72.7355 63.1976 72.7004 63.3064C72.6654 63.4152 72.607 63.5167 72.5285 63.605L69.9775 66.4798L68.4907 65.3991L71.0418 62.5243Z" fill="#3F3D56"/>
<path d="M67.3873 67.3296L71.307 70.1788C71.5927 70.3876 71.7752 70.6904 71.8146 71.0208C71.854 71.3513 71.747 71.6823 71.517 71.9414C71.2871 72.2006 70.953 72.3666 70.588 72.4031C70.2231 72.4395 69.857 72.3436 69.5701 72.1361L65.6504 69.2869L67.3873 67.3296Z" fill="#3F3D56"/>
<path d="M71.6876 72.0364C71.8899 71.8084 71.9405 71.5411 71.8005 71.4394C71.6605 71.3376 71.383 71.44 71.1807 71.668C70.9784 71.896 70.9278 72.1633 71.0678 72.2651C71.2077 72.3668 71.4852 72.2645 71.6876 72.0364Z" fill="#0066FF"/>
<path d="M110.571 75.2276H0.659063C0.616877 75.2276 0.576418 75.2125 0.546588 75.1855C0.516758 75.1585 0.5 75.1218 0.5 75.0837C0.5 75.0455 0.516758 75.0089 0.546588 74.9819C0.576418 74.9549 0.616877 74.9397 0.659063 74.9397H110.571C110.614 74.9397 110.654 74.9549 110.684 74.9819C110.714 75.0089 110.73 75.0455 110.73 75.0837C110.73 75.1218 110.714 75.1585 110.684 75.1855C110.654 75.2125 110.614 75.2276 110.571 75.2276Z" fill="#CCCCCC"/>
</g>
<defs>
<clipPath id="clip0_31_5297">
<rect width="118" height="75.2087" fill="white" transform="translate(0.5 0.0455933)"/>
</clipPath>
</defs>
</svg>
