<svg width="120" height="69" viewBox="0 0 120 69" fill="none" xmlns="http://www.w3.org/2000/svg">
<path d="M109.956 68.3679C111.691 68.3679 113.097 68.129 113.097 67.8344C113.097 67.5397 111.691 67.3008 109.956 67.3008C108.222 67.3008 106.816 67.5397 106.816 67.8344C106.816 68.129 108.222 68.3679 109.956 68.3679Z" fill="#F2F2F2"/>
<path d="M113.62 16.8829H113.359V22.4849H113.62V16.8829Z" fill="#F2F2F2"/>
<path d="M110.741 13.2816H109.171V68.5013H110.741V13.2816Z" fill="#F2F2F2"/>
<path d="M117.145 17.6165H102.768C102.61 17.6165 102.454 17.5823 102.31 17.5162C102.166 17.4501 102.038 17.3536 101.934 17.2331C101.829 17.1125 101.751 16.9708 101.705 16.8172C101.658 16.6636 101.644 16.5016 101.664 16.3421L103.496 1.40347C103.53 1.12942 103.661 0.877405 103.864 0.694598C104.067 0.511791 104.329 0.41073 104.6 0.410339H115.313C115.584 0.41073 115.846 0.511791 116.049 0.694598C116.252 0.877405 116.383 1.12942 116.417 1.40347L118.249 16.3421C118.268 16.5016 118.254 16.6636 118.208 16.8172C118.161 16.9708 118.083 17.1125 117.979 17.2331C117.874 17.3536 117.746 17.4501 117.602 17.5162C117.459 17.5823 117.303 17.6165 117.145 17.6165Z" fill="#F2F2F2"/>
<path d="M113.489 23.4185C113.995 23.4185 114.405 23.0005 114.405 22.4849C114.405 21.9692 113.995 21.5512 113.489 21.5512C112.983 21.5512 112.573 21.9692 112.573 22.4849C112.573 23.0005 112.983 23.4185 113.489 23.4185Z" fill="#F2F2F2"/>
<path d="M17.1542 53.6778C16.4931 56.0155 14.5629 57.6519 12.5494 59.042C12.2682 59.2362 11.987 59.4258 11.7057 59.611C11.7038 59.6119 11.7018 59.6137 11.6999 59.6146C11.6864 59.6234 11.6728 59.6323 11.6602 59.6412C11.6021 59.6794 11.5441 59.7176 11.4865 59.7553L11.5181 59.7698C11.5181 59.7698 11.5492 59.7866 11.5152 59.7725C11.5051 59.7682 11.4945 59.7643 11.4844 59.7599C10.3147 59.2791 9.12418 58.7627 8.22776 57.8619C7.29787 56.9264 6.75444 55.4591 7.25797 54.2302C7.32415 54.0692 7.40775 53.9162 7.50722 53.7742C7.54806 53.7146 7.59205 53.6576 7.63785 53.6016C7.9156 53.2561 8.27862 52.9922 8.6896 52.8371C9.10057 52.6819 9.54467 52.6412 9.97621 52.719C10.4078 52.7968 10.8112 52.9904 11.145 53.2799C11.4788 53.5693 11.731 53.9441 11.8755 54.3659C12.0235 52.9619 10.8878 51.7859 9.79483 50.9182C8.70141 50.0509 7.45897 49.1064 7.24759 47.7103C7.12954 46.9335 7.39454 46.1807 7.87727 45.5764C7.89222 45.558 7.90714 45.5397 7.92254 45.5218C8.51016 44.818 9.33665 44.366 10.2369 44.2562C11.9135 44.0786 13.5421 44.9832 14.7602 46.1715C16.7206 48.0833 17.9057 51.0199 17.1542 53.6778Z" fill="#F2F2F2"/>
<path d="M14.0028 50.6202C14.3245 51.1305 14.5716 51.6859 14.7361 52.2689C14.8752 52.79 14.9372 53.3293 14.9198 53.8691C14.8749 54.9797 14.5691 56.0631 14.0279 57.0281C13.6203 57.7603 13.1235 58.4369 12.5494 59.0421C12.2682 59.2362 11.987 59.4259 11.7057 59.6111C11.7038 59.6119 11.7018 59.6137 11.6999 59.6146C11.6864 59.6235 11.6728 59.6323 11.6602 59.6413C11.6021 59.6794 11.544 59.7176 11.4865 59.7553C11.4865 59.7553 11.5491 59.7866 11.5152 59.7725C11.5051 59.7682 11.4945 59.7643 11.4844 59.76C11.5892 58.8838 11.4865 57.9948 11.1849 57.1675C10.8832 56.3401 10.3914 55.5985 9.75072 55.0048C9.10846 54.4202 8.33972 53.9985 7.5072 53.7742C7.54805 53.7146 7.59203 53.6576 7.63783 53.6016C7.95937 53.6936 8.2723 53.8143 8.57298 53.9624C9.6478 54.4885 10.5279 55.3534 11.0829 56.429C11.581 57.4058 11.7954 58.5071 11.7009 59.6037C11.749 59.5593 11.7971 59.5139 11.8437 59.469C12.7326 58.6243 13.5221 57.6547 14.0564 56.5357C14.5199 55.5881 14.7477 54.5388 14.7198 53.4803C14.6762 52.3261 14.225 51.257 13.5718 50.3263C12.8559 49.3334 12.0102 48.4449 11.0581 47.6856C10.0986 46.9023 9.04872 46.2415 7.93179 45.7182C7.9066 45.7062 7.88689 45.6848 7.87674 45.6584C7.86659 45.632 7.86678 45.6027 7.87727 45.5764C7.88471 45.5529 7.90098 45.5333 7.92253 45.5219C7.93362 45.517 7.94564 45.5147 7.9577 45.5153C7.96976 45.5158 7.98155 45.5191 7.9922 45.5249C8.1301 45.5896 8.26705 45.6552 8.4029 45.7236C9.53439 46.2937 10.592 47.0049 11.5515 47.8407C12.4783 48.6462 13.3508 49.5664 14.0028 50.6202Z" fill="white"/>
<path d="M7.6106 59.5648H14.855C14.9345 59.5648 15.013 59.582 15.0855 59.6153C15.1579 59.6486 15.2225 59.6972 15.2751 59.758C15.3277 59.8187 15.3671 59.8901 15.3905 59.9675C15.4139 60.0449 15.4209 60.1265 15.4111 60.2069L14.488 67.7341C14.4709 67.8722 14.405 67.9992 14.3026 68.0913C14.2003 68.1834 14.0685 68.2343 13.9319 68.2345H8.53366C8.39712 68.2343 8.26532 68.1834 8.16296 68.0913C8.0606 67.9992 7.99469 67.8722 7.97756 67.7341L7.0545 60.2069C7.04464 60.1265 7.05166 60.0449 7.0751 59.9675C7.09854 59.8901 7.13786 59.8187 7.19045 59.758C7.24304 59.6972 7.3077 59.6486 7.38014 59.6153C7.45258 59.582 7.53113 59.5648 7.6106 59.5648Z" fill="#F2F2F2"/>
<path d="M31.2309 68.2923C31.7316 68.2923 32.1375 67.8786 32.1375 67.3682C32.1375 66.8578 31.7316 66.444 31.2309 66.444C30.7301 66.444 30.3242 66.8578 30.3242 67.3682C30.3242 67.8786 30.7301 68.2923 31.2309 68.2923Z" fill="#CCCCCC"/>
<path d="M88.4996 68.2923C89.0004 68.2923 89.4063 67.8786 89.4063 67.3682C89.4063 66.8578 89.0004 66.444 88.4996 66.444C87.9989 66.444 87.593 66.8578 87.593 67.3682C87.593 67.8786 87.9989 68.2923 88.4996 68.2923Z" fill="#CCCCCC"/>
<path d="M47.8524 54.507H33.6485C32.9875 54.5062 32.3538 54.2382 31.8864 53.7618C31.4189 53.2853 31.156 52.6393 31.1553 51.9655V42.1078C31.156 41.434 31.4189 40.7881 31.8864 40.3116C32.3538 39.8352 32.9875 39.5672 33.6485 39.5664H47.8524C48.5134 39.5672 49.1471 39.8352 49.6146 40.3116C50.082 40.7881 50.3449 41.434 50.3456 42.1078V51.9655C50.3449 52.6393 50.082 53.2853 49.6146 53.7618C49.1471 54.2382 48.5134 54.5062 47.8524 54.507Z" fill="#E6E6E6"/>
<path d="M66.9673 54.584H52.7634C52.1024 54.5832 51.4686 54.3152 51.0012 53.8388C50.5338 53.3623 50.2709 52.7163 50.2701 52.0426V42.1849C50.2709 41.5111 50.5338 40.8651 51.0012 40.3886C51.4686 39.9122 52.1024 39.6442 52.7634 39.6434H66.9673C67.6283 39.6442 68.262 39.9122 68.7294 40.3886C69.1968 40.8651 69.4598 41.5111 69.4605 42.1849V52.0426C69.4598 52.7164 69.1968 53.3623 68.7294 53.8388C68.262 54.3152 67.6283 54.5832 66.9673 54.584Z" fill="#E6E6E6"/>
<path d="M86.082 54.661H71.8781C71.2171 54.6602 70.5834 54.3922 70.116 53.9158C69.6486 53.4393 69.3856 52.7934 69.3849 52.1196V42.2619C69.3856 41.5881 69.6486 40.9421 70.116 40.4657C70.5834 39.9892 71.2171 39.7212 71.8781 39.7205H86.082C86.743 39.7212 87.3768 39.9892 87.8442 40.4657C88.3116 40.9421 88.5745 41.5881 88.5752 42.2619V52.1196C88.5745 52.7934 88.3116 53.4394 87.8442 53.9158C87.3768 54.3922 86.743 54.6602 86.082 54.661Z" fill="#E6E6E6"/>
<path d="M91.5217 53.9679H28.9642V67.2912H91.5217V53.9679Z" fill="#E6E6E6"/>
<path d="M31.2308 67.3682H28.5109C27.1362 67.3682 26.0177 66.0738 26.0177 64.4826V50.5793H31.2308V67.3682Z" fill="#E6E6E6"/>
<path d="M91.2196 67.3682H88.4998V48.423H93.7129V64.112C93.7129 65.9075 92.5944 67.3682 91.2196 67.3682Z" fill="#E6E6E6"/>
<path d="M50.4212 56.7404H31.2308V52.5816C37.6276 48.8414 44.0244 48.8414 50.4212 52.5816V56.7404Z" fill="#CCCCCC"/>
<path d="M69.536 56.8174H50.3457V52.6587C56.7425 48.9184 63.1393 48.9184 69.536 52.6587V56.8174Z" fill="#CCCCCC"/>
<path d="M88.6508 56.8944H69.4604V52.7357C75.8573 48.9954 82.254 48.9954 88.6508 52.7357V56.8944Z" fill="#CCCCCC"/>
<path d="M27.5288 54.1219C29.9906 54.1219 31.9864 52.0876 31.9864 49.5781C31.9864 47.0687 29.9906 45.0344 27.5288 45.0344C25.0669 45.0344 23.0712 47.0687 23.0712 49.5781C23.0712 52.0876 25.0669 54.1219 27.5288 54.1219Z" fill="#CCCCCC"/>
<path d="M92.8062 53.9679C95.2681 53.9679 97.2638 51.9336 97.2638 49.4241C97.2638 46.9147 95.2681 44.8804 92.8062 44.8804C90.3444 44.8804 88.3486 46.9147 88.3486 49.4241C88.3486 51.9336 90.3444 53.9679 92.8062 53.9679Z" fill="#CCCCCC"/>
<path d="M79.6754 40.5225C79.6857 40.5956 79.6904 40.6693 79.6894 40.7431L85.0326 44.497L86.4575 43.8094L87.7565 45.8658L85.3501 47.3329C85.1557 47.4514 84.9288 47.5025 84.7035 47.4784C84.4782 47.4543 84.2667 47.3563 84.1006 47.1993L78.6894 42.0798C78.4209 42.1568 78.1357 42.1487 77.8719 42.0565C77.608 41.9643 77.3779 41.7924 77.2123 41.5636C77.0466 41.3349 76.9532 41.0602 76.9444 40.776C76.9356 40.4918 77.012 40.2117 77.1632 39.9728C77.3145 39.7339 77.5335 39.5476 77.7912 39.4387C78.0488 39.3298 78.3329 39.3034 78.6056 39.3631C78.8783 39.4228 79.1267 39.5657 79.3178 39.7728C79.5089 39.9799 79.6336 40.2414 79.6754 40.5225V40.5225Z" fill="#FFB8B8"/>
<path d="M85.1355 44.1739C85.159 44.0911 85.1998 44.0144 85.255 43.949C85.3103 43.8837 85.3787 43.8313 85.4556 43.7954L88.1424 42.5405C88.5052 42.2998 88.9468 42.2155 89.3705 42.3061C89.7942 42.3968 90.1653 42.655 90.4025 43.0241C90.6397 43.3933 90.7237 43.8432 90.6359 44.2753C90.5482 44.7075 90.2959 45.0865 89.9344 45.3293L87.7133 47.3313C87.6499 47.3884 87.5752 47.431 87.4942 47.456C87.4132 47.481 87.3279 47.488 87.2441 47.4764C87.1602 47.4648 87.0798 47.4349 87.0083 47.3888C86.9368 47.3426 86.8759 47.2813 86.8298 47.2091L85.2076 44.6684C85.1614 44.5961 85.131 44.5145 85.1186 44.4292C85.1061 44.3438 85.1119 44.2568 85.1355 44.1739Z" fill="#0066FF"/>
<path d="M79.6079 40.7672L79.5811 40.7692L79.5078 39.7361C79.4843 39.4059 79.2748 39.1523 79.0397 39.1696L77.4818 39.2845C77.2467 39.3018 76.8141 39.6028 76.8376 39.9331L76.8565 40.1991L77.2399 45.6005C77.2633 45.9307 77.7339 46.1651 77.969 46.1478L79.5269 46.0328C79.762 46.0155 79.9335 45.7338 79.9101 45.4035L79.6333 41.5045L79.6601 41.5025L79.6079 40.7672Z" fill="#3F3D56"/>
<path d="M79.4176 39.747L79.8193 45.406C79.8368 45.6527 79.7087 45.8631 79.5331 45.876L77.9677 45.9915C77.7922 46.0044 77.6357 45.815 77.6182 45.5684L77.2164 39.9093C77.1989 39.6627 77.3271 39.4523 77.5026 39.4393L77.6925 39.4253C77.6794 39.4757 77.6822 39.529 77.7007 39.5776C77.7191 39.6262 77.7522 39.6676 77.7951 39.6958C77.8132 39.7046 77.8331 39.7086 77.8531 39.7073L78.7456 39.6414C78.829 39.6352 78.8899 39.5351 78.8815 39.4179C78.8796 39.3909 78.874 39.3643 78.8647 39.3389L79.068 39.3239C79.2436 39.3109 79.4001 39.5003 79.4176 39.747Z" fill="white"/>
<path d="M57.4564 52.8143L56.9401 51.2662L62.5528 48.4993L63.3149 50.7844L57.4564 52.8143Z" fill="#FFB8B8"/>
<path d="M56.1159 53.7194L54.451 48.7274L54.513 48.7059C54.7633 48.6192 55.028 48.5835 55.2918 48.601C55.5556 48.6185 55.8135 48.6888 56.0507 48.8079C56.2879 48.927 56.4997 49.0925 56.6741 49.2951C56.8485 49.4976 56.9821 49.7332 57.0672 49.9884L57.0673 49.9885L58.0841 53.0374L56.1159 53.7194Z" fill="#2F2E41"/>
<path d="M79.7328 53.9193C78.529 53.9882 77.3287 53.732 76.2531 53.1767L69.6531 48.5999L61.9466 51.5088C61.7421 51.5797 61.5187 51.5689 61.3217 51.4785C61.1247 51.3881 60.9686 51.2248 60.8851 51.0217L60.5074 50.0956C60.4212 49.8873 60.4187 49.6529 60.5005 49.4427C60.5822 49.2326 60.7416 49.0635 60.9443 48.972L68.3069 45.6017C69.1909 45.1985 70.1824 45.1111 71.1212 45.3535L81.3423 48.0085L84.044 51.279L84.014 51.3212C82.6877 53.1864 81.1145 53.8173 79.7328 53.9193Z" fill="#2F2E41"/>
<path d="M88.0803 40.253C89.8552 40.253 91.2941 38.7863 91.2941 36.977C91.2941 35.1678 89.8552 33.701 88.0803 33.701C86.3053 33.701 84.8665 35.1678 84.8665 36.977C84.8665 38.7863 86.3053 40.253 88.0803 40.253Z" fill="#FFB8B8"/>
<path d="M84.7813 52.7372L79.6089 48.8135L83.1364 46.258C83.0355 45.927 82.5879 44.0346 85.0359 42.7446C85.8107 42.3364 86.369 41.9849 86.6952 41.7001C87.158 41.2931 87.7508 41.0727 88.362 41.0803C88.7472 41.0866 89.1257 41.1841 89.4676 41.3652C89.8095 41.5464 90.1053 41.8061 90.3317 42.124C90.558 42.4418 90.7087 42.8089 90.7718 43.1964C90.8349 43.5838 90.8086 43.9809 90.6952 44.3562C90.1847 46.0475 89.3716 48.2886 88.3968 49.3604C87.294 50.5714 86.0981 51.6905 84.8204 52.7073L84.7813 52.7372Z" fill="#0066FF"/>
<path d="M58.2766 54.1863L57.7603 52.638L63.373 49.8713L64.1351 52.1562L58.2766 54.1863Z" fill="#FFB8B8"/>
<path d="M56.9361 55.0913L55.2712 50.0993L55.3332 50.0778C55.5835 49.991 55.8481 49.9554 56.112 49.9729C56.3758 49.9904 56.6337 50.0607 56.8709 50.1798C57.1081 50.2989 57.3199 50.4644 57.4943 50.667C57.6687 50.8695 57.8023 51.1051 57.8874 51.3602L57.8875 51.3604L58.9043 54.4093L56.9361 55.0913Z" fill="#2F2E41"/>
<path d="M80.5529 55.2912C79.3492 55.3601 78.1489 55.1039 77.0733 54.5486L70.4733 49.9718L62.7668 52.8807C62.5623 52.9516 62.3389 52.9408 62.1419 52.8504C61.9448 52.76 61.7888 52.5967 61.7053 52.3936L61.3276 51.4675C61.2414 51.2592 61.2389 51.0248 61.3207 50.8146C61.4024 50.6045 61.5617 50.4354 61.7645 50.3438L69.1271 46.9735C70.0111 46.5704 71.0026 46.483 71.9414 46.7254L82.1625 49.3804L84.8642 52.6509L84.8342 52.6931C83.5079 54.5583 81.9347 55.1892 80.5529 55.2912Z" fill="#2F2E41"/>
<path d="M79.0694 44.4523C79.1095 44.5138 79.1447 44.5784 79.1747 44.6456L85.5801 45.7061L86.579 44.4628L88.6167 45.7542L87.0583 48.1303C86.9324 48.3223 86.7488 48.4674 86.535 48.5439C86.3213 48.6205 86.089 48.6243 85.873 48.5548L78.8324 46.2899C78.6222 46.4767 78.3611 46.5938 78.0839 46.6257C77.8067 46.6575 77.5266 46.6026 77.2808 46.4681C77.035 46.3337 76.8352 46.1262 76.7079 45.8733C76.5806 45.6203 76.5319 45.3338 76.5682 45.0519C76.6046 44.77 76.7243 44.506 76.9114 44.2952C77.0985 44.0843 77.3441 43.9365 77.6157 43.8714C77.8872 43.8063 78.1717 43.827 78.4314 43.9308C78.6911 44.0346 78.9136 44.2165 79.0694 44.4523Z" fill="#FFB8B8"/>
<path d="M85.5375 45.3692C85.524 45.2841 85.5286 45.1969 85.5511 45.1138C85.5735 45.0306 85.6134 44.9534 85.6678 44.8874L87.5687 42.5808C87.7955 42.2049 88.1592 41.936 88.5802 41.833C89.0011 41.73 89.445 41.8013 89.8144 42.0314C90.1838 42.2615 90.4487 42.6315 90.5509 43.0603C90.6531 43.4891 90.5843 43.9418 90.3596 44.319L89.1933 47.0975C89.16 47.1768 89.1103 47.2479 89.0477 47.3058C88.985 47.3638 88.9108 47.4073 88.8302 47.4334C88.7495 47.4595 88.6643 47.4676 88.5803 47.4571C88.4963 47.4466 88.4156 47.4178 88.3435 47.3726L85.8103 45.7846C85.7382 45.7394 85.6765 45.6789 85.6294 45.6073C85.5823 45.5356 85.551 45.4544 85.5375 45.3692Z" fill="#0066FF"/>
<path d="M87.2211 40.5849C88.1549 39.3602 88.6728 37.8591 88.6966 36.3082C88.257 36.6412 87.7594 36.8861 87.2302 37.0301C86.6687 37.1826 86.0513 37.2132 85.5225 36.9677C84.7781 36.622 84.3378 35.7406 84.4223 34.9113C84.5068 34.082 85.069 33.3411 85.8011 32.9692C86.5505 32.612 87.4052 32.5593 88.1914 32.8217C88.6073 32.4607 89.1165 32.2295 89.658 32.1558C90.1995 32.0822 90.7504 32.1692 91.2447 32.4064C92.3822 32.9755 93.0114 34.2935 93.1205 35.5804C93.2296 36.8673 92.9052 38.1469 92.5837 39.3963L92.5473 39.5375C92.4472 39.9264 92.1562 40.6728 92.1562 40.6728C92.1562 40.6728 90.4661 40.3328 89.7947 40.1148C88.8215 40.4734 87.2211 40.5849 87.2211 40.5849Z" fill="#2F2E41"/>
<path d="M79.1649 40.8988L77.7879 41.0004C77.7533 41.0029 77.7191 40.9914 77.6928 40.9682C77.6666 40.9451 77.6504 40.9123 77.6479 40.877C77.6454 40.8417 77.6568 40.8068 77.6795 40.7801C77.7022 40.7533 77.7344 40.7369 77.769 40.7343L79.146 40.6328C79.1632 40.6315 79.1804 40.6336 79.1968 40.6391C79.2131 40.6446 79.2282 40.6533 79.2413 40.6648C79.2543 40.6763 79.265 40.6902 79.2727 40.7059C79.2804 40.7216 79.285 40.7386 79.2863 40.7561C79.2875 40.7736 79.2854 40.7912 79.2799 40.8078C79.2745 40.8245 79.2659 40.8399 79.2546 40.8531C79.2434 40.8664 79.2296 40.8772 79.2142 40.8851C79.1988 40.8929 79.1821 40.8976 79.1649 40.8988Z" fill="#3F3D56"/>
<path d="M79.2121 41.564L77.835 41.6656C77.8179 41.6669 77.8006 41.6647 77.7843 41.6592C77.7679 41.6537 77.7528 41.645 77.7398 41.6335C77.7268 41.6221 77.7161 41.6081 77.7084 41.5924C77.7007 41.5768 77.696 41.5597 77.6948 41.5422C77.6936 41.5247 77.6957 41.5071 77.7011 41.4905C77.7066 41.4738 77.7152 41.4585 77.7264 41.4452C77.7377 41.432 77.7514 41.4211 77.7668 41.4133C77.7822 41.4054 77.799 41.4007 77.8161 41.3995L79.1932 41.298C79.2278 41.2954 79.262 41.307 79.2882 41.3301C79.3145 41.3533 79.3306 41.3861 79.3331 41.4214C79.3357 41.4566 79.3243 41.4915 79.3016 41.5183C79.2789 41.545 79.2467 41.5615 79.2121 41.564Z" fill="#3F3D56"/>
<path d="M79.2594 42.2292L77.8823 42.3307C77.8477 42.3332 77.8136 42.3216 77.7874 42.2985C77.7613 42.2753 77.7452 42.2426 77.7427 42.2073C77.7402 42.1721 77.7515 42.1373 77.7741 42.1105C77.7967 42.0838 77.8289 42.0673 77.8634 42.0647L79.2405 41.9631C79.2751 41.9606 79.3093 41.9721 79.3355 41.9953C79.3618 42.0184 79.3779 42.0512 79.3804 42.0865C79.3829 42.1218 79.3716 42.1567 79.3489 42.1834C79.3262 42.2102 79.294 42.2266 79.2594 42.2292Z" fill="#3F3D56"/>
<path d="M119.145 68.5013H0.855338C0.820635 68.5013 0.787352 68.4872 0.762813 68.4622C0.738273 68.4372 0.724487 68.4033 0.724487 68.3679C0.724487 68.3325 0.738273 68.2986 0.762813 68.2736C0.787352 68.2486 0.820635 68.2345 0.855338 68.2345H119.145C119.179 68.2345 119.213 68.2486 119.237 68.2736C119.262 68.2986 119.276 68.3325 119.276 68.3679C119.276 68.4033 119.262 68.4372 119.237 68.4622C119.213 68.4872 119.179 68.5013 119.145 68.5013Z" fill="#3F3D56"/>
<path d="M63.6351 24.0854H50.4191C50.1069 24.0851 49.8076 23.9585 49.5868 23.7334C49.366 23.5084 49.2418 23.2033 49.2415 22.885V11.2809C49.2418 10.9626 49.366 10.6575 49.5868 10.4324C49.8076 10.2074 50.1069 10.0808 50.4191 10.0804H63.6351C63.9473 10.0808 64.2466 10.2074 64.4674 10.4324C64.6882 10.6575 64.8124 10.9626 64.8127 11.2809V22.885C64.8124 23.2033 64.6882 23.5084 64.4674 23.7334C64.2466 23.9585 63.9473 24.0851 63.6351 24.0854ZM50.4191 10.3472C50.1763 10.3475 49.9435 10.4459 49.7717 10.621C49.6 10.796 49.5034 11.0333 49.5032 11.2809V22.885C49.5034 23.1325 49.6 23.3699 49.7717 23.5449C49.9435 23.7199 50.1763 23.8184 50.4191 23.8187H63.6351C63.8779 23.8184 64.1107 23.7199 64.2825 23.5449C64.4542 23.3699 64.5508 23.1325 64.551 22.885V11.2809C64.5508 11.0333 64.4542 10.796 64.2825 10.621C64.1107 10.4459 63.8779 10.3475 63.6351 10.3472H50.4191Z" fill="#F2F2F2"/>
<path d="M61.7028 22.2848H52.3514C52.0565 22.2845 51.7738 22.1649 51.5653 21.9524C51.3568 21.7398 51.2395 21.4517 51.2391 21.1511V13.0148C51.2395 12.7143 51.3568 12.4261 51.5653 12.2135C51.7738 12.001 52.0565 11.8814 52.3514 11.8811H61.7028C61.9977 11.8814 62.2804 12.001 62.4889 12.2135C62.6974 12.4261 62.8147 12.7143 62.815 13.0148V21.1511C62.8147 21.4517 62.6974 21.7398 62.4889 21.9524C62.2804 22.1649 61.9977 22.2845 61.7028 22.2848Z" fill="#E6E6E6"/>
<path d="M57.0925 8.3465C57.4538 8.3465 57.7467 8.04792 57.7467 7.6796C57.7467 7.31128 57.4538 7.0127 57.0925 7.0127C56.7312 7.0127 56.4382 7.31128 56.4382 7.6796C56.4382 8.04792 56.7312 8.3465 57.0925 8.3465Z" fill="#F2F2F2"/>
<path d="M58.4681 10.2824L57.0928 7.93982L55.7254 10.282L55.5005 10.1457L57.0922 7.41937L58.6926 10.1453L58.4681 10.2824Z" fill="#F2F2F2"/>
<path d="M58.5973 16.1493C58.5969 15.9474 58.5752 15.7462 58.5324 15.5491H56.5691C56.4302 15.5491 56.2971 15.6053 56.199 15.7053C56.1008 15.8054 56.0457 15.9411 56.0457 16.0826V18.9402C56.7383 18.8901 57.3867 18.5743 57.8601 18.0565C58.3336 17.5386 58.597 16.8571 58.5973 16.1493Z" fill="#0066FF"/>
<path d="M55.8494 19.0837C55.3064 19.0839 54.7745 18.9275 54.3149 18.6327C53.8554 18.3379 53.4871 17.9167 53.2524 17.4176C53.0177 16.9185 52.9263 16.3619 52.9887 15.8121C53.0511 15.2623 53.2647 14.7417 53.605 14.3104C53.9452 13.8791 54.3982 13.5547 54.9116 13.3746C55.425 13.1945 55.9779 13.1661 56.5065 13.2926C57.0351 13.4192 57.5178 13.6955 57.8989 14.0897C58.2799 14.484 58.5439 14.98 58.6602 15.5206L58.6949 15.6825H56.569C56.465 15.6826 56.3652 15.7248 56.2916 15.7998C56.218 15.8748 56.1766 15.9765 56.1765 16.0826V19.0645L56.0322 19.0749C55.9716 19.0794 55.911 19.0837 55.8494 19.0837ZM55.8494 13.4817C55.1553 13.4817 54.4896 13.7627 53.9988 14.263C53.5081 14.7633 53.2323 15.4418 53.2323 16.1493C53.2323 16.8568 53.5081 17.5353 53.9988 18.0356C54.4896 18.5358 55.1553 18.8169 55.8494 18.8169C55.8713 18.8169 55.8931 18.8163 55.9148 18.8152V16.0826C55.915 15.9058 55.984 15.7363 56.1066 15.6112C56.2293 15.4862 56.3956 15.4159 56.569 15.4157H58.3645C58.206 14.8599 57.8755 14.3713 57.4222 14.0227C56.9689 13.6742 56.4172 13.4844 55.8494 13.4817Z" fill="white"/>
<path d="M59.7095 19.9507H56.5691C56.3956 19.9505 56.2293 19.8801 56.1066 19.7551C55.984 19.6301 55.915 19.4606 55.9148 19.2838V18.8159L56.0364 18.8072C56.411 18.7808 56.7756 18.6723 57.1054 18.4892C57.4351 18.306 57.7222 18.0525 57.947 17.7459C58.1718 17.4393 58.3291 17.0869 58.408 16.7127C58.487 16.3385 58.4858 15.9513 58.4046 15.5776L58.3698 15.4157H59.7095C59.8829 15.4159 60.0492 15.4862 60.1719 15.6113C60.2945 15.7363 60.3635 15.9058 60.3637 16.0826V19.2838C60.3635 19.4606 60.2945 19.6301 60.1719 19.7551C60.0492 19.8801 59.8829 19.9505 59.7095 19.9507ZM56.1765 19.0618V19.2838C56.1766 19.3898 56.218 19.4915 56.2916 19.5666C56.3652 19.6416 56.465 19.6838 56.5691 19.6839H59.7095C59.8136 19.6838 59.9133 19.6416 59.9869 19.5666C60.0605 19.4915 60.1019 19.3898 60.102 19.2838V16.0826C60.1019 15.9765 60.0605 15.8748 59.9869 15.7998C59.9133 15.7248 59.8136 15.6826 59.7095 15.6825H58.6905C58.7153 15.8368 58.7279 15.9929 58.7281 16.1493C58.7257 16.8688 58.4647 17.5625 57.9945 18.0992C57.5244 18.6358 56.8776 18.9783 56.1765 19.0618Z" fill="white"/>
</svg>
