<svg width="95" height="76" viewBox="0 0 95 76" fill="none" xmlns="http://www.w3.org/2000/svg">
<g clip-path="url(#clip0_31_5383)">
<path d="M90.5413 66.4567H0.78186V67.4464H90.5413V66.4567Z" fill="#3F3D56"/>
<path d="M90.5413 74.8693H0.78186V75.859H90.5413V74.8693Z" fill="#3F3D56"/>
<path d="M82.7984 67.3671C82.7448 67.2794 81.4799 65.1674 81.0414 60.7818C80.6392 56.7582 80.8978 49.9761 84.4151 40.5157C91.0784 22.5936 82.8795 8.13298 82.7957 7.98894L83.2002 7.75427C83.2214 7.7908 85.3371 11.4777 86.5869 17.3485C88.2383 25.1319 87.6369 33.2248 84.8534 40.6787C78.2014 58.5703 83.1468 67.04 83.1974 67.1235L82.7984 67.3671Z" fill="#3F3D56"/>
<path d="M80.1929 6.93662C81.8711 6.93662 83.2317 5.5761 83.2317 3.89782C83.2317 2.21953 81.8711 0.859009 80.1929 0.859009C78.5146 0.859009 77.1541 2.21953 77.1541 3.89782C77.1541 5.5761 78.5146 6.93662 80.1929 6.93662Z" fill="#3F3D56"/>
<path d="M89.7767 18.1568C91.455 18.1568 92.8155 16.7963 92.8155 15.118C92.8155 13.4397 91.455 12.0792 89.7767 12.0792C88.0984 12.0792 86.7379 13.4397 86.7379 15.118C86.7379 16.7963 88.0984 18.1568 89.7767 18.1568Z" fill="#3F3D56"/>
<path d="M83.2317 25.6369C84.91 25.6369 86.2705 24.2764 86.2705 22.5981C86.2705 20.9198 84.91 19.5593 83.2317 19.5593C81.5534 19.5593 80.1929 20.9198 80.1929 22.5981C80.1929 24.2764 81.5534 25.6369 83.2317 25.6369Z" fill="#0066FF"/>
<path d="M91.1793 31.9483C92.8576 31.9483 94.2181 30.5878 94.2181 28.9095C94.2181 27.2312 92.8576 25.8707 91.1793 25.8707C89.501 25.8707 88.1405 27.2312 88.1405 28.9095C88.1405 30.5878 89.501 31.9483 91.1793 31.9483Z" fill="#0066FF"/>
<path d="M80.8942 41.766C82.5724 41.766 83.933 40.4054 83.933 38.7272C83.933 37.0489 82.5724 35.6884 80.8942 35.6884C79.2159 35.6884 77.8553 37.0489 77.8553 38.7272C77.8553 40.4054 79.2159 41.766 80.8942 41.766Z" fill="#3F3D56"/>
<path d="M84.6342 67.479C84.6342 67.479 81.5954 59.9989 90.7118 54.3888L84.6342 67.479Z" fill="#3F3D56"/>
<path d="M80.8969 67.3433C80.8969 67.3433 79.5139 59.3888 68.8098 59.457L80.8969 67.3433Z" fill="#3F3D56"/>
<path d="M15.7053 47.7067C18.1809 47.7067 20.1878 45.6998 20.1878 43.2242C20.1878 40.7486 18.1809 38.7417 15.7053 38.7417C13.2297 38.7417 11.2228 40.7486 11.2228 43.2242C11.2228 45.6998 13.2297 47.7067 15.7053 47.7067Z" fill="#A0616A"/>
<path d="M16.5175 37.6488C15.6602 37.4383 14.7384 37.4032 13.9079 37.7023C13.0526 38.0104 12.3485 38.6544 11.8307 39.4016C11.3128 40.1488 10.9651 40.9992 10.6535 41.8532C10.4718 42.3189 10.3312 42.7996 10.2332 43.2898C10.1215 43.9432 10.143 44.6125 10.2964 45.2574C10.4499 45.9023 10.7321 46.5095 11.1261 47.0426C10.9948 46.6965 11.3253 46.3192 11.6878 46.2442C12.0503 46.1693 12.4195 46.296 12.777 46.392C13.4069 46.5611 14.058 46.6376 14.71 46.6193C14.9597 46.6122 15.2215 46.5871 15.4292 46.4482C16.0799 46.0131 15.7354 44.8888 16.2769 44.3235C16.4701 44.1217 16.7459 44.0274 16.9949 43.9009C17.8915 43.4453 18.4822 42.526 18.7612 41.5598C18.936 40.9543 19.3698 39.2148 19.0001 38.6519C18.6659 38.1432 17.085 37.7882 16.5175 37.6488Z" fill="#2F2E41"/>
<path d="M27.9029 38.2816C27.5718 38.1653 27.2209 38.1155 26.8705 38.135C26.5201 38.1545 26.177 38.243 25.8609 38.3954C24.6916 38.9438 22.6239 40.2723 22.7025 42.7869C22.8118 46.2854 24.0144 48.5814 24.0144 48.5814L23.7958 55.6878L22.7025 68.5887C22.7025 68.5887 17.3453 72.9618 19.4226 74.0551C21.4998 75.1484 24.9984 68.8073 24.9984 68.8073L27.7316 61.4822L28.7156 54.3758C28.7156 54.3758 30.3555 46.9414 28.7156 43.6615C28.7156 43.6615 30.6101 39.2697 27.9029 38.2816Z" fill="#A0616A"/>
<path d="M40.9604 49.5653C40.9604 49.5653 39.1018 57.437 45.6616 59.6236C52.2214 61.8102 60.8584 65.5274 60.8584 65.5274L61.9517 67.386L64.4663 63.9968L64.029 61.3729L59.7651 60.1703C59.7651 60.1703 51.7841 54.0478 48.2855 53.6105L48.7228 49.5653H40.9604Z" fill="#A0616A"/>
<path d="M58.432 43.2479L60.749 47.0507C60.749 47.0507 68.4021 51.4239 70.37 54.3758C72.338 57.3277 77.0391 60.4983 77.0391 60.4983L74.9619 65.4181C74.9619 65.4181 69.0581 58.5303 66.5435 57.8743C64.0289 57.2184 52.8773 48.2534 52.8773 48.2534L58.432 43.2479Z" fill="#A0616A"/>
<path d="M37.7973 29.9209C36.9439 30.055 36.0898 30.1892 35.2467 30.3772C33.2877 30.8141 31.404 31.5379 29.5652 32.3424C26.9918 33.4683 24.4924 34.7561 22.0819 36.1981C21.4318 36.5693 20.8116 36.9905 20.2267 37.4578C19.8375 37.7819 19.4711 38.1535 19.2624 38.615C19.1298 38.9372 19.044 39.2767 19.0077 39.6231C18.8382 40.8389 18.846 42.0934 19.1754 43.2759C19.5048 44.4583 20.1729 45.5668 21.1563 46.3014C21.4165 46.5021 21.7055 46.6623 22.0136 46.7767C22.4279 46.9031 22.857 46.9751 23.2899 46.9907C24.6694 47.1004 26.1104 47.201 27.3869 46.6667C28.1981 46.3272 28.8849 45.7533 29.6313 45.2884C32.7923 43.3195 36.8083 43.4034 40.2647 42.0172C40.6007 41.8825 40.9429 41.7253 41.1779 41.4499C41.3558 41.2138 41.4899 40.9477 41.5737 40.6641C42.0107 39.4547 42.4477 38.2452 42.8846 37.0358C43.1615 36.2694 43.4386 35.5026 43.671 34.7216C43.9141 33.9047 44.1078 33.074 44.3014 32.244C44.468 31.5297 44.6395 30.7816 44.5755 30.0432C44.481 28.954 44.2293 28.9098 43.229 29.0675C41.4186 29.3528 39.608 29.6373 37.7973 29.9209Z" fill="#0066FF"/>
<path d="M24.623 38.2816C24.2919 38.1653 23.941 38.1155 23.5906 38.135C23.2402 38.1545 22.8971 38.243 22.581 38.3954C21.4117 38.9438 19.344 40.2723 19.4226 42.7869C19.5319 46.2854 20.7345 48.5814 20.7345 48.5814L20.5158 55.6878L19.4226 68.5887C19.4226 68.5887 14.0654 72.9618 16.1427 74.0551C18.2199 75.1484 21.7185 68.8073 21.7185 68.8073L24.4517 61.4822L25.4357 54.3758C25.4357 54.3758 27.0756 46.9414 25.4357 43.6615C25.4357 43.6615 27.3302 39.2697 24.623 38.2816Z" fill="#A0616A"/>
<path d="M43.6019 29.0161C43.6019 29.0161 53.3147 28.1367 52.8774 34.1498C52.4401 40.1629 49.1602 50.5492 49.1602 50.5492L40.7418 50.9865C40.7418 50.9865 39.6485 43.8801 41.1791 41.4749L43.6019 29.0161Z" fill="#2F2E41"/>
<path d="M50.3628 30.9792C50.3628 30.9792 52.7681 32.5099 54.08 35.5711C55.392 38.6323 59.3278 44.6454 59.3278 44.6454L52.8774 49.2373L48.0669 44.3174L50.3628 30.9792Z" fill="#2F2E41"/>
<path d="M61.9517 65.09C61.9517 65.09 59.8744 65.8553 61.2957 67.3859C62.1688 68.3357 62.9048 69.4029 63.4823 70.5565C63.4823 70.5565 63.045 73.399 64.9036 73.2897C66.7622 73.1804 67.5275 69.3539 67.0902 68.0419C66.6529 66.7299 66.1062 60.4982 66.1062 60.4982C66.1062 60.4982 62.2797 60.8262 62.389 61.3728C62.4983 61.9195 63.045 64.6527 61.9517 65.09Z" fill="#2F2E41"/>
<path d="M74.9619 62.9035C74.9619 62.9035 72.994 63.8875 73.5406 64.7621C74.0873 65.6368 75.8366 68.1513 75.8366 68.1513C75.8366 68.1513 75.1806 71.4312 77.0392 71.7592C78.8978 72.0872 79.9911 67.8234 79.6631 66.9487C79.3351 66.0741 79.3351 62.6849 79.3351 62.6849C79.3351 62.6849 79.4444 59.2957 78.3511 59.2957C77.2578 59.2957 75.3992 59.733 75.3992 59.733C75.3992 59.733 75.8366 62.7942 74.9619 62.9035Z" fill="#2F2E41"/>
<path d="M14.448 68.4105H11.2775V73.944H14.448V68.4105Z" fill="#0066FF"/>
</g>
<defs>
<clipPath id="clip0_31_5383">
<rect width="93.4362" height="75" fill="white" transform="translate(0.78186 0.859009)"/>
</clipPath>
</defs>
</svg>
